<?xml version="1.0" encoding="utf-8"?>
<!-- Generator: Adobe Illustrator 27.0.0, SVG Export Plug-In . SVG Version: 6.00 Build 0)  -->
<svg version="1.1" id="图层_1" xmlns="http://www.w3.org/2000/svg" xmlns:xlink="http://www.w3.org/1999/xlink" x="0px" y="0px"
	 width="10000px" height="10000px" viewBox="0 0 10000 10000" style="enable-background:new 0 0 10000 10000;" xml:space="preserve"
	>
<style type="text/css">
	.st0{fill:#FFFFFF;}
	.st1{clip-path:url(#SVGID_00000096037508016596397060000003875003898826700478_);fill:#E8AE4A;}
	.st2{clip-path:url(#SVGID_00000096037508016596397060000003875003898826700478_);fill:#FF4500;}
	.st3{clip-path:url(#SVGID_00000096037508016596397060000003875003898826700478_);fill:#FFFFFF;}
</style>
<g>
	<path class="st0" d="M10000,7500c0,1375-1125,2500-2500,2500H2500C1125,10000,0,8875,0,7500V2500C0,1125,1125,0,2500,0h5000
		c1375,0,2500,1125,2500,2500V7500z"/>
</g>
<g>
	<defs>
		<rect id="SVGID_1_" x="1500" y="1500" width="7000" height="7000"/>
	</defs>
	<clipPath id="SVGID_00000140013540652200516850000017677349172130796426_">
		<use xlink:href="#SVGID_1_"  style="overflow:visible;"/>
	</clipPath>
	<polygon style="clip-path:url(#SVGID_00000140013540652200516850000017677349172130796426_);fill:#E8AE4A;" points="2312.8,4787.7 
		3250,3850.5 3250,5724.9 	"/>
	<path style="clip-path:url(#SVGID_00000140013540652200516850000017677349172130796426_);fill:#FF4500;" d="M8500,8500
		L7262.6,9737.4L3476.9,5951.7c280.6-26.7,546.8-102.5,790.1-218.7c319.3-152.5,599-374.6,819.4-646.6L8500,8500z"/>
	
		<rect x="1500" y="1500" style="clip-path:url(#SVGID_00000140013540652200516850000017677349172130796426_);fill:#FF4500;" width="1750" height="7000"/>
	<path style="clip-path:url(#SVGID_00000140013540652200516850000017677349172130796426_);fill:#FF4500;" d="M3476.9,5951.7
		c280.6-26.7,546.8-102.5,790.1-218.7l-504.4,504.4L3476.9,5951.7z"/>
	<path style="clip-path:url(#SVGID_00000140013540652200516850000017677349172130796426_);fill:#FF4500;" d="M5383,4617
		c147.1-308,229.5-652.9,229.5-1017c0-914.3-519.3-1707.2-1279.1-2100H8500L5383,4617z"/>
	<path style="clip-path:url(#SVGID_00000140013540652200516850000017677349172130796426_);fill:#FFFFFF;" d="M5612.5,3600
		c0,364.1-82.4,709-229.5,1017c-80.5,168.5-180.3,325.9-296.6,469.4c-220.4,272-500.1,494.1-819.4,646.6
		c-243.3,116.2-509.5,192-790.1,218.7l285.7,285.7L3250,6750V1237.5c390.5,0,758.9,94.7,1083.4,262.5
		C5093.2,1892.8,5612.5,2685.7,5612.5,3600z"/>
</g>
</svg>
