<?xml version="1.0" encoding="UTF-8"?><svg id="_图层_1" xmlns="http://www.w3.org/2000/svg" viewBox="0 0 393.72 100"><defs><style>.cls-1{fill:#ff4500;}.cls-2{fill:none;stroke:#ff4500;stroke-miterlimit:10;stroke-width:5px;}</style></defs><rect class="cls-1" x="382" y="4.78" width="8.88" height="90.64"/><g><path class="cls-1" d="M74.69,16.15l-23.54,32.52,19.82,34.57-22.66,4-14.84-21.09-.78,22.07-20.31,.78L13.95,14.19l22.75,1.27-1.76,22.07,15.14-23.34,24.61,1.95Z"/><path class="cls-1" d="M130.68,39c0,2.54-.22,4.84-.66,6.91-.44,2.07-1.13,3.96-2.08,5.69-.94,1.73-2.17,3.32-3.66,4.79-1.5,1.46-3.3,2.86-5.42,4.2l11.62,20.7-21.97,4.3-7.52-20.8-6.05,.2-.88,20.31h-21c.16-7.42,.32-14.81,.46-22.17,.15-7.36,.32-14.75,.51-22.17,.06-3.74,.13-7.45,.2-11.13,.06-3.68,.2-7.39,.39-11.13,2.28-.85,4.52-1.55,6.74-2.1,2.21-.55,4.44-.98,6.67-1.29,2.23-.31,4.49-.52,6.79-.63,2.29-.11,4.65-.17,7.06-.17,3.71,0,7.3,.51,10.77,1.54s6.53,2.56,9.2,4.61c2.67,2.05,4.81,4.61,6.42,7.67,1.61,3.06,2.42,6.62,2.42,10.69Zm-21.88,1.56c0-1.37-.19-2.62-.56-3.76-.37-1.14-.93-2.12-1.66-2.95s-1.64-1.48-2.73-1.95c-1.09-.47-2.37-.71-3.83-.71-.65,0-1.29,.04-1.9,.12-.62,.08-1.22,.2-1.81,.37l-.78,18.16h1.17c1.4,0,2.82-.18,4.27-.54,1.45-.36,2.75-.91,3.91-1.66,1.16-.75,2.1-1.71,2.83-2.88s1.1-2.57,1.1-4.2Z"/><path class="cls-1" d="M195.69,81.87l-24.22,3.12-2.93-11.04h-11.13l-2.44,11.04-24.9-2.44,19.43-65.04,27.15-1.37,19.04,65.72Zm-28.91-22.85l-3.71-16.99-3.61,16.99h7.32Z"/><path class="cls-1" d="M240.87,32.45l-22.36,30.18h21.58l-.29,20.7-43.55,1.76-1.95-19.14,25.49-33.2-23.34,1.76-.2-19.63h43.75l.88,17.58Z"/></g><rect class="cls-2" x="2.5" y="2.5" width="388.72" height="95" rx="10" ry="10"/><rect class="cls-1" x="250.34" y="3.31" width="9.96" height="94.19"/><path class="cls-1" d="M259.33,5.93V88.84h124.09V5.93h-124.09Zm122.33,29.8c-.23,2.9-.6,5.89-1.12,8.98-.52,3.09-1.2,6.23-2.03,9.4s-1.86,6.23-3.1,9.16c-1.24,2.93-2.68,5.67-4.32,8.23-1.64,2.56-3.53,4.79-5.66,6.69-2.13,1.9-4.52,3.4-7.15,4.49s-5.57,1.64-8.79,1.64c-3.78,0-7.06-.61-9.84-1.83s-5.17-2.86-7.15-4.93c-1.99-2.07-3.61-4.48-4.88-7.23-1.27-2.75-2.26-5.66-2.98-8.74-.72-3.08-1.21-6.22-1.49-9.42-.28-3.21-.42-6.29-.42-9.25,0-4.56,.23-9.11,.68-13.65,.43-4.31,1.05-8.61,1.83-12.91l-26.57,37.1-1.27,30.57h-23.14l.59-30.37-13.96-36.23,24.9-3.12,3.91,21.09,12.4-21.09,23.23,1.65c.02-.09,.03-.19,.05-.28l22.85,.88c-.88,5.11-1.64,10.25-2.27,15.41-.63,5.16-.95,10.34-.95,15.55,0,.55,.02,1.38,.07,2.47,.05,1.09,.14,2.31,.27,3.66,.13,1.35,.32,2.73,.56,4.15s.58,2.71,1,3.88c.42,1.17,.94,2.13,1.54,2.88,.6,.75,1.31,1.12,2.12,1.12,.94,0,1.79-.45,2.54-1.34,.75-.9,1.41-2.09,1.98-3.59,.57-1.5,1.07-3.22,1.49-5.18,.42-1.95,.78-3.99,1.07-6.1,.29-2.12,.53-4.23,.71-6.35,.18-2.12,.33-4.08,.44-5.91,.11-1.82,.19-3.43,.22-4.83,.03-1.4,.05-2.44,.05-3.12,0-2.54-.04-5.07-.12-7.59-.08-2.52-.2-5.04-.37-7.54h22.85c.39,4.49,.59,9.05,.59,13.67,0,2.41-.11,5.06-.34,7.96Z"/><rect class="cls-1" x="313.58" y="-59.59" width="7" height="129.85" transform="translate(311.74 322.41) rotate(-90)"/><rect class="cls-1" x="317.1" y="29.08" width="7.28" height="125.39" transform="translate(228.97 412.52) rotate(-90)"/></svg>